<svg width="396" height="108" viewBox="0 0 396 108" fill="none" xmlns="http://www.w3.org/2000/svg">
<path d="M100.992 36.5825H80.256C78.208 22.8865 67.072 14.5665 50.816 14.5665C33.024 14.5665 19.968 26.3425 19.968 50.1505C19.968 69.2225 33.152 82.4065 52.096 82.4065C72.064 82.4065 78.592 68.9665 80.256 59.2385H100.992C98.304 77.2865 86.272 96.7425 48.768 96.7425C15.616 96.7425 0 74.2145 0 48.4865C0 22.7585 15.232 0.230469 51.072 0.230469C82.56 0.230469 98.944 16.7425 100.992 36.5825Z" fill="#F0F248"/>
<path d="M113.329 94.1825V60.2625H122.161V66.8545H122.289C124.721 63.0145 128.241 59.3665 135.089 59.3665C136.433 59.3665 137.393 59.4945 138.609 59.6865V68.3905C136.113 67.6225 134.513 67.5585 132.977 67.5585C128.497 67.5585 122.161 69.8625 122.161 77.7985V94.1825H113.329Z" fill="#F0F248"/>
<path d="M151.082 73.8305H173.866C172.842 66.9825 166.698 64.9985 162.41 64.9985C158.25 64.9985 152.618 66.9185 151.082 73.8305ZM183.082 79.4625H151.082C151.274 83.3025 153.834 89.0625 162.602 89.0625C168.426 89.0625 170.986 87.0145 172.714 84.1985H182.314C180.394 88.0385 175.786 95.4625 162.858 95.4625C147.498 95.4625 141.866 86.5665 141.866 77.5425C141.866 66.2145 150.25 58.9825 162.282 58.9825C177.386 58.9825 183.082 68.2625 183.082 78.1825V79.4625Z" fill="#F0F248"/>
<path d="M216.725 80.5505V77.2865C214.165 78.3105 211.413 78.6945 205.141 79.3985C198.485 80.2305 196.885 81.5745 196.885 84.5185C196.885 88.9985 200.917 89.8305 203.989 89.8305C208.789 89.8305 216.725 88.0385 216.725 80.5505ZM225.557 70.3745V86.4385C225.557 88.2945 226.901 88.3585 227.477 88.3585C228.309 88.3585 229.653 88.3585 230.357 88.1665V94.3745C228.629 94.6945 227.093 95.1425 224.085 95.1425C218.325 95.1425 217.621 92.1345 217.429 90.7905C215.701 92.5185 211.413 95.4625 201.493 95.4625C192.597 95.4625 187.669 91.4945 187.669 84.8385C187.669 75.4945 197.269 74.6625 202.901 74.1505C215.509 72.9345 216.917 72.4865 216.917 69.8625C216.917 66.0225 212.437 64.9985 207.317 64.9985C201.429 64.9985 198.357 66.8545 198.037 70.6305H189.397C190.613 61.7345 197.397 58.9825 207.317 58.9825C225.045 58.9825 225.557 65.9585 225.557 70.3745Z" fill="#F0F248"/>
<path d="M236.956 84.7105V66.6625H229.916V60.2625H236.956V49.7665H245.788V60.2625H255.004V66.6625H245.788V82.1505C245.788 86.0545 245.98 88.1665 248.988 88.1665C251.228 88.1665 253.212 88.1025 255.324 88.0385V94.4385C252.956 94.7585 251.292 94.9505 248.54 94.9505C237.788 94.9505 236.956 91.1105 236.956 84.7105Z" fill="#F0F248"/>
<path d="M260.522 54.8865V47.7185H269.354V54.8865H260.522ZM260.522 94.1825V60.2625H269.354V94.1825H260.522Z" fill="#F0F248"/>
<path d="M288.606 94.1825L273.118 60.2625H283.102L293.214 85.4785L303.71 60.2625H313.694L298.206 94.1825H288.606Z" fill="#F0F248"/>
<path d="M317.335 54.8865V47.7185H326.167V54.8865H317.335ZM317.335 94.1825V60.2625H326.167V94.1825H317.335Z" fill="#F0F248"/>
<path d="M336.331 84.7105V66.6625H329.291V60.2625H336.331V49.7665H345.163V60.2625H354.379V66.6625H345.163V82.1505C345.163 86.0545 345.355 88.1665 348.363 88.1665C350.603 88.1665 352.587 88.1025 354.699 88.0385V94.4385C352.331 94.7585 350.667 94.9505 347.915 94.9505C337.163 94.9505 336.331 91.1105 336.331 84.7105Z" fill="#F0F248"/>
<path d="M371.225 93.6065L355.417 60.2625H365.017L375.897 84.5185L386.521 60.2625H395.929L377.433 100.198C374.681 105.958 372.633 107.11 365.209 107.11C363.737 107.11 361.433 107.046 359.705 106.982V100.198C360.409 100.262 362.137 100.326 364.121 100.326C366.489 100.326 368.217 99.8145 369.241 97.7025L371.225 93.6065Z" fill="#F0F248"/>
</svg>
