<svg viewBox="0 0 275 93" fill="none" xmlns="http://www.w3.org/2000/svg">
<path d="M0 91.392V0H79.36V14.336H19.2V37.376H76.928V51.712H19.2V77.056H80.384V91.392H0Z" fill="#F0F248"/>
<path d="M103.268 91.392L87.7795 57.472H97.7635L107.876 82.688L118.371 57.472H128.355L112.868 91.392H103.268Z" fill="#F0F248"/>
<path d="M130.268 74.432C130.268 65.088 136.092 56.192 151.26 56.192C166.428 56.192 172.252 65.088 172.252 74.432C172.252 83.84 166.428 92.672 151.26 92.672C136.092 92.672 130.268 83.84 130.268 74.432ZM139.484 74.432C139.484 80.32 142.748 85.888 151.26 85.888C159.772 85.888 163.036 80.32 163.036 74.432C163.036 68.544 159.772 62.976 151.26 62.976C142.748 62.976 139.484 68.544 139.484 74.432Z" fill="#F0F248"/>
<path d="M178.184 91.392V44.928H187.016V91.392H178.184Z" fill="#F0F248"/>
<path d="M206.268 91.392L190.779 57.472H200.764L210.876 82.688L221.372 57.472H231.355L215.868 91.392H206.268Z" fill="#F0F248"/>
<path d="M242.868 71.04H265.652C264.628 64.192 258.484 62.208 254.196 62.208C250.036 62.208 244.404 64.128 242.868 71.04ZM274.868 76.672H242.868C243.06 80.512 245.62 86.272 254.388 86.272C260.212 86.272 262.772 84.224 264.5 81.408H274.1C272.18 85.248 267.572 92.672 254.644 92.672C239.284 92.672 233.652 83.776 233.652 74.752C233.652 63.424 242.036 56.192 254.068 56.192C269.172 56.192 274.868 65.472 274.868 75.392V76.672Z" fill="#F0F248"/>
</svg>
