<svg width="340" height="105" viewBox="0 0 340 105" fill="none" xmlns="http://www.w3.org/2000/svg">
<path d="M0 91.9037V0.511719H56.32C78.848 0.511719 86.016 14.2077 86.016 28.9277C86.016 42.8797 77.056 57.0877 56.576 57.0877H19.2V91.9037H0ZM19.2 14.8477V42.7517H50.048C60.928 42.7517 66.816 39.8077 66.816 28.9277C66.816 17.6637 59.008 14.8477 51.456 14.8477H19.2Z" fill="#F0F248"/>
<path d="M92.2712 80.6397V57.9837H101.103V77.3117C101.103 82.4317 102.383 86.3997 109.871 86.3997C113.775 86.3997 120.175 83.8397 120.175 76.6077V57.9837H129.007V91.9037H120.175V87.1677H120.047C117.167 90.8157 112.751 93.1837 106.671 93.1837C99.3112 93.1837 92.2712 90.5597 92.2712 80.6397Z" fill="#F0F248"/>
<path d="M136.146 91.9037V57.9837H144.978V64.5757H145.106C147.538 60.7357 151.058 57.0877 157.906 57.0877C159.25 57.0877 160.21 57.2157 161.426 57.4077V66.1117C158.93 65.3437 157.33 65.2797 155.794 65.2797C151.314 65.2797 144.978 67.5837 144.978 75.5197V91.9037H136.146Z" fill="#F0F248"/>
<path d="M165.771 104.832V57.9837H174.603V62.8477H174.731C177.355 58.7517 182.347 57.0877 187.723 57.0877C200.651 57.0877 206.283 66.4957 206.283 75.0717C206.283 83.7757 200.651 93.1837 187.723 93.1837C180.683 93.1837 175.435 89.2797 174.731 87.2317H174.603V104.832H165.771ZM185.611 63.8717C177.355 63.8717 174.219 69.4397 174.219 75.0717C174.219 80.8957 177.355 86.3997 185.611 86.3997C193.995 86.3997 197.067 80.8957 197.067 75.0717C197.067 69.4397 193.995 63.8717 185.611 63.8717Z" fill="#F0F248"/>
<path d="M210.487 74.9437C210.487 65.5997 216.311 56.7037 231.479 56.7037C246.647 56.7037 252.471 65.5997 252.471 74.9437C252.471 84.3517 246.647 93.1837 231.479 93.1837C216.311 93.1837 210.487 84.3517 210.487 74.9437ZM219.703 74.9437C219.703 80.8317 222.967 86.3997 231.479 86.3997C239.991 86.3997 243.255 80.8317 243.255 74.9437C243.255 69.0557 239.991 63.4877 231.479 63.4877C222.967 63.4877 219.703 69.0557 219.703 74.9437Z" fill="#F0F248"/>
<path d="M256.418 81.2797H266.018C266.21 86.3997 272.162 87.1677 275.362 87.1677C279.714 87.1677 284.578 86.0797 284.578 82.8157C284.578 80.1277 283.106 79.3597 273.57 78.0157C263.074 76.6717 257.57 75.3277 257.57 67.6477C257.57 57.9837 268.834 56.7037 274.53 56.7037C279.778 56.7037 292.386 57.4077 292.898 68.3517H283.682C282.978 63.2317 277.09 62.7197 274.082 62.7197C269.026 62.7197 266.402 64.8317 266.402 66.6237C266.402 69.3757 267.234 69.8237 275.746 71.0397C286.882 72.5757 294.178 73.7917 294.178 81.5997C294.178 90.2397 285.922 93.1837 275.426 93.1837C268.258 93.1837 256.674 91.7117 256.418 81.2797Z" fill="#F0F248"/>
<path d="M307.774 71.5517H330.558C329.534 64.7037 323.39 62.7197 319.102 62.7197C314.942 62.7197 309.31 64.6397 307.774 71.5517ZM339.774 77.1837H307.774C307.966 81.0237 310.526 86.7837 319.294 86.7837C325.118 86.7837 327.678 84.7357 329.406 81.9197H339.006C337.086 85.7597 332.478 93.1837 319.55 93.1837C304.19 93.1837 298.558 84.2877 298.558 75.2637C298.558 63.9357 306.942 56.7037 318.974 56.7037C334.078 56.7037 339.774 65.9837 339.774 75.9037V77.1837Z" fill="#F0F248"/>
</svg>
