<svg width="590" height="94" viewBox="0 0 590 94" fill="none" xmlns="http://www.w3.org/2000/svg">
<path d="M0 91.7279V0.335938H19.2V35.9199H75.904V0.335938H95.104V91.7279H75.904V50.2559H19.2V91.7279H0Z" fill="#F0F248"/>
<path d="M112.49 80.4639V57.8079H121.322V77.1359C121.322 82.2559 122.602 86.2239 130.09 86.2239C133.994 86.2239 140.394 83.6639 140.394 76.4319V57.8079H149.226V91.7279H140.394V86.9919H140.266C137.386 90.6399 132.97 93.0079 126.89 93.0079C119.53 93.0079 112.49 90.3839 112.49 80.4639Z" fill="#F0F248"/>
<path d="M182.733 91.7279V71.5039C182.733 67.9839 182.285 63.6959 174.413 63.6959C171.277 63.6959 165.197 65.424 165.197 72.8479V91.7279H156.365V57.8079H165.197V62.9279H165.325C168.205 59.2799 172.621 56.9119 178.701 56.9119C182.669 56.9119 188.301 57.6159 190.669 63.1839C192.909 60.0479 197.197 56.9119 204.429 56.9119C209.869 56.9119 217.933 58.7679 217.933 69.1999V91.7279H209.101V71.5039C209.101 67.9839 208.653 63.6959 200.781 63.6959C197.645 63.6959 191.565 65.424 191.565 72.8479V91.7279H182.733Z" fill="#F0F248"/>
<path d="M252.699 78.0959V74.8319C250.139 75.8559 247.387 76.2399 241.115 76.9439C234.459 77.7759 232.859 79.1199 232.859 82.0639C232.859 86.5439 236.891 87.3759 239.963 87.3759C244.763 87.3759 252.699 85.5839 252.699 78.0959ZM261.531 67.9199V83.9839C261.531 85.8399 262.875 85.9039 263.451 85.9039C264.283 85.9039 265.627 85.9039 266.331 85.7119V91.9199C264.603 92.2399 263.067 92.6879 260.059 92.6879C254.299 92.6879 253.595 89.6799 253.403 88.3359C251.675 90.0639 247.387 93.0079 237.467 93.0079C228.571 93.0079 223.643 89.0399 223.643 82.3839C223.643 73.0399 233.243 72.2079 238.875 71.6959C251.483 70.4799 252.891 70.0319 252.891 67.4079C252.891 63.5679 248.411 62.5439 243.291 62.5439C237.403 62.5439 234.331 64.3999 234.011 68.1759H225.371C226.587 59.2799 233.371 56.5279 243.291 56.5279C261.019 56.5279 261.531 63.5039 261.531 67.9199Z" fill="#F0F248"/>
<path d="M270.177 91.7279V57.8079H279.009V62.9279H279.138C282.018 59.2799 286.433 56.9119 292.513 56.9119C299.873 56.9119 306.914 59.4719 306.914 68.6879V91.7279H298.082V71.5039C298.082 67.8559 296.865 63.6959 289.569 63.6959C284.961 63.6959 279.009 66.2559 279.009 73.4879V91.7279H270.177Z" fill="#F0F248"/>
<path d="M314.565 77.4559V69.9039H337.156V77.4559H314.565Z" fill="#F0F248"/>
<path d="M383.009 69.7119H373.793C373.089 66.1279 369.505 63.3119 364.385 63.3119C356.129 63.3119 352.609 68.8799 352.609 74.7679C352.609 80.6559 355.745 86.2239 363.425 86.2239C370.337 86.2239 372.065 83.5999 373.985 78.7359H383.201C381.153 92.8159 366.753 93.0079 364.385 93.0079C349.217 93.0079 343.393 84.1759 343.393 74.7679C343.393 63.8239 351.265 56.5279 364.385 56.5279C369.505 56.5279 381.153 58.2559 383.009 69.7119Z" fill="#F0F248"/>
<path d="M396.806 71.3759H419.59C418.565 64.5279 412.422 62.5439 408.134 62.5439C403.974 62.5439 398.342 64.4639 396.806 71.3759ZM428.806 77.0079H396.806C396.997 80.8479 399.557 86.6079 408.326 86.6079C414.15 86.6079 416.71 84.5599 418.438 81.7439H428.038C426.117 85.5839 421.51 93.0079 408.582 93.0079C393.221 93.0079 387.59 84.1119 387.59 75.0879C387.59 63.7599 395.973 56.5279 408.005 56.5279C423.109 56.5279 428.806 65.8079 428.806 75.7279V77.0079Z" fill="#F0F248"/>
<path d="M434.865 91.7279V57.8079H443.697V62.9279H443.825C446.705 59.2799 451.121 56.9119 457.201 56.9119C464.561 56.9119 471.601 59.4719 471.601 68.6879V91.7279H462.769V71.5039C462.769 67.8559 461.553 63.6959 454.257 63.6959C449.649 63.6959 443.697 66.2559 443.697 73.4879V91.7279H434.865Z" fill="#F0F248"/>
<path d="M481.492 82.2559V64.2079H474.452V57.8079H481.492V47.3119H490.324V57.8079H499.54V64.2079H490.324V79.6959C490.324 83.5999 490.516 85.7119 493.524 85.7119C495.764 85.7119 497.748 85.6479 499.86 85.5839V91.9839C497.492 92.3039 495.828 92.4959 493.076 92.4959C482.324 92.4959 481.492 88.6559 481.492 82.2559Z" fill="#F0F248"/>
<path d="M504.802 91.7279V57.8079H513.635V64.3999H513.763C516.195 60.5599 519.714 56.9119 526.562 56.9119C527.906 56.9119 528.867 57.0399 530.083 57.2319V65.9359C527.587 65.1679 525.987 65.1039 524.451 65.1039C519.971 65.1039 513.635 67.4079 513.635 75.3439V91.7279H504.802Z" fill="#F0F248"/>
<path d="M534.683 52.4319V45.2639H543.516V52.4319H534.683ZM534.683 91.7279V57.8079H543.516V91.7279H534.683Z" fill="#F0F248"/>
<path d="M589.071 69.7119H579.856C579.152 66.1279 575.568 63.3119 570.448 63.3119C562.192 63.3119 558.672 68.8799 558.672 74.7679C558.672 80.6559 561.807 86.2239 569.487 86.2239C576.399 86.2239 578.128 83.5999 580.047 78.7359H589.263C587.216 92.8159 572.815 93.0079 570.448 93.0079C555.279 93.0079 549.456 84.1759 549.456 74.7679C549.456 63.8239 557.328 56.5279 570.448 56.5279C575.568 56.5279 587.215 58.2559 589.071 69.7119Z" fill="#F0F248"/>
</svg>
