<svg width="493" height="109" viewBox="0 0 493 109" fill="none" xmlns="http://www.w3.org/2000/svg">
<path d="M53.76 82.8323C75.264 82.8323 87.552 68.8802 87.552 48.9123C87.552 28.9443 75.264 14.9922 53.76 14.9922C32.256 14.9922 19.968 28.9443 19.968 48.9123C19.968 68.8802 32.256 82.8323 53.76 82.8323ZM53.76 97.1683C15.104 97.1683 0 74.6403 0 48.9123C0 23.1842 15.104 0.65625 53.76 0.65625C92.416 0.65625 107.52 23.1842 107.52 48.9123C107.52 74.6403 92.416 97.1683 53.76 97.1683Z" fill="#F0F248"/>
<path d="M119.641 83.3443V60.6883H128.473V80.0163C128.473 85.1363 129.753 89.1043 137.241 89.1043C141.145 89.1043 147.545 86.5443 147.545 79.3123V60.6883H156.377V94.6083H147.545V89.8723H147.417C144.537 93.5203 140.121 95.8883 134.041 95.8883C126.681 95.8883 119.641 93.2643 119.641 83.3443Z" fill="#F0F248"/>
<path d="M166.268 85.1363V67.0883H159.228V60.6883H166.268V50.1923H175.1V60.6883H184.316V67.0883H175.1V82.5763C175.1 86.4803 175.292 88.5923 178.3 88.5923C180.54 88.5923 182.524 88.5283 184.636 88.4643V94.8643C182.268 95.1842 180.604 95.3763 177.852 95.3763C167.1 95.3763 166.268 91.5363 166.268 85.1363Z" fill="#F0F248"/>
<path d="M187.851 83.9843H197.451C197.643 89.1043 203.595 89.8723 206.795 89.8723C211.147 89.8723 216.011 88.7843 216.011 85.5203C216.011 82.8323 214.539 82.0643 205.003 80.7203C194.507 79.3763 189.003 78.0322 189.003 70.3522C189.003 60.6882 200.267 59.4083 205.963 59.4083C211.211 59.4083 223.819 60.1123 224.331 71.0563H215.115C214.411 65.9362 208.523 65.4243 205.515 65.4243C200.459 65.4243 197.835 67.5363 197.835 69.3283C197.835 72.0803 198.667 72.5283 207.179 73.7443C218.315 75.2803 225.611 76.4963 225.611 84.3043C225.611 92.9443 217.355 95.8883 206.859 95.8883C199.691 95.8883 188.107 94.4163 187.851 83.9843Z" fill="#F0F248"/>
<path d="M233.831 85.1363V67.0883H226.791V60.6883H233.831V50.1923H242.663V60.6883H251.879V67.0883H242.663V82.5763C242.663 86.4803 242.855 88.5923 245.863 88.5923C248.103 88.5923 250.087 88.5283 252.199 88.4643V94.8643C249.831 95.1842 248.167 95.3763 245.415 95.3763C234.663 95.3763 233.831 91.5363 233.831 85.1363Z" fill="#F0F248"/>
<path d="M284.725 80.9762V77.7122C282.165 78.7363 279.413 79.1202 273.141 79.8242C266.485 80.6562 264.885 82.0003 264.885 84.9443C264.885 89.4243 268.917 90.2563 271.989 90.2563C276.789 90.2563 284.725 88.4642 284.725 80.9762ZM293.557 70.8003V86.8643C293.557 88.7203 294.901 88.7843 295.477 88.7843C296.309 88.7843 297.653 88.7843 298.357 88.5923V94.8003C296.629 95.1203 295.093 95.5683 292.085 95.5683C286.325 95.5683 285.621 92.5603 285.429 91.2163C283.701 92.9443 279.413 95.8883 269.493 95.8883C260.597 95.8883 255.669 91.9202 255.669 85.2643C255.669 75.9202 265.269 75.0882 270.901 74.5762C283.509 73.3602 284.917 72.9123 284.917 70.2883C284.917 66.4483 280.437 65.4243 275.317 65.4243C269.429 65.4243 266.357 67.2803 266.037 71.0563H257.397C258.613 62.1603 265.397 59.4083 275.317 59.4083C293.045 59.4083 293.557 66.3843 293.557 70.8003Z" fill="#F0F248"/>
<path d="M302.204 94.6083V60.6883H311.036V65.8083H311.164C314.044 62.1602 318.46 59.7923 324.54 59.7923C331.9 59.7923 338.94 62.3523 338.94 71.5683V94.6083H330.108V74.3843C330.108 70.7363 328.892 66.5762 321.596 66.5762C316.988 66.5762 311.036 69.1363 311.036 76.3683V94.6083H302.204Z" fill="#F0F248"/>
<path d="M385.119 48.1443V94.6083H376.287V89.9363H376.159C375.455 91.9843 370.207 95.8883 363.167 95.8883C350.239 95.8883 344.607 86.4803 344.607 77.7763C344.607 69.2003 350.239 59.7923 363.167 59.7923C368.543 59.7923 373.535 61.4563 376.159 65.5523H376.287V48.1443H385.119ZM353.823 77.7763C353.823 83.6003 356.895 89.1043 365.279 89.1043C373.535 89.1043 376.671 83.6003 376.671 77.7763C376.671 72.1443 373.535 66.5762 365.279 66.5762C356.895 66.5762 353.823 72.1443 353.823 77.7763Z" fill="#F0F248"/>
<path d="M392.522 55.3123V48.1443H401.354V55.3123H392.522ZM392.522 94.6083V60.6883H401.354V94.6083H392.522Z" fill="#F0F248"/>
<path d="M408.766 94.6083V60.6883H417.598V65.8083H417.726C420.606 62.1602 425.022 59.7923 431.102 59.7923C438.462 59.7923 445.502 62.3523 445.502 71.5683V94.6083H436.67V74.3843C436.67 70.7363 435.454 66.5762 428.158 66.5762C423.55 66.5762 417.598 69.1363 417.598 76.3683V94.6083H408.766Z" fill="#F0F248"/>
<path d="M483.809 60.5603H492.641V93.4563C492.641 101.456 487.457 108.688 472.481 108.688C461.985 108.688 453.281 106.32 452.577 97.6163H461.793C462.625 102.032 466.913 102.672 472.225 102.672C482.337 102.672 483.809 97.2963 483.809 92.8803V88.7843H483.617C479.329 92.8803 474.977 94.2243 469.793 94.2243C460.833 94.2243 450.913 89.6803 450.913 77.0723C450.913 68.3682 456.609 59.7923 469.729 59.7923C476.641 59.7923 481.633 61.9683 483.681 65.5523H483.809V60.5603ZM460.129 76.9443C460.129 81.9362 463.137 87.4403 472.417 87.4403C479.137 87.4403 483.809 83.1523 483.809 76.8163C483.809 68.6243 476.257 66.5762 471.649 66.5762C464.993 66.5762 460.129 70.8643 460.129 76.9443Z" fill="#F0F248"/>
</svg>
